<svg xmlns="http://www.w3.org/2000/svg" xmlns:xlink="http://www.w3.org/1999/xlink" fill="#fff" version="1.1" id="Capa_1" width="800px" height="800px" viewBox="0 0 401.856 401.856" xml:space="preserve"><g><path d="M276.085,114.713c-5.326-0.698-7.535,2.075-8.233,3.318c-0.698,1.224-1.979,4.561,1.349,8.807l17.336,22.29   c4.055,4.064,10.558,4.466,15.119,0.937l21.2-16.361c2.868-2.19,3.604-4.533,3.71-6.091c0.229-3.682-2.649-6.77-7.354-7.382   l-10.404-1.329c-1.243-0.182-2.553-1.683-2.63-3.069c-1.568-30.17-14.238-58.609-35.688-80.067   c-16.103-16.104-36.347-27.339-58.541-32.532c-15.807-3.72-31.996-4.236-48.109-1.521c-30.438,5.154-57.576,21.315-76.395,45.508   c-1.578,2.037-2.792,4.905,1.052,8.75c0.708,0.708,1.645,1.54,2.697,2.362c2.343,1.817,7.765,5.996,11.207,1.587   c16.323-20.98,39.13-34.549,64.681-38.862c13.502-2.286,27.1-1.865,40.43,1.243c18.628,4.37,35.63,13.817,49.142,27.339   c17.576,17.566,28.19,40.842,29.893,65.522l-1.022,0.765L276.085,114.713z"/></g></svg>